<svg width="26" height="26" viewBox="0 0 26 26" fill="none" xmlns="http://www.w3.org/2000/svg">
<path d="M18.1957 3.21091C18.4768 2.9298 18.8105 2.7068 19.1778 2.55466C19.5451 2.40252 19.9388 2.32422 20.3363 2.32422C20.7339 2.32422 21.1276 2.40252 21.4949 2.55466C21.8622 2.7068 22.1959 2.9298 22.477 3.21091C22.7581 3.49203 22.9811 3.82577 23.1333 4.19306C23.2854 4.56036 23.3637 4.95403 23.3637 5.35159C23.3637 5.74915 23.2854 6.14281 23.1333 6.51011C22.9811 6.87741 22.7581 7.21114 22.477 7.49226L8.02748 21.9418L2.14062 23.5473L3.74613 17.6605L18.1957 3.21091Z" stroke="#040C5D" stroke-width="4" stroke-linecap="round" stroke-linejoin="round"/>
</svg>
