<svg width="62" height="62" viewBox="0 0 62 62" fill="none" xmlns="http://www.w3.org/2000/svg">
<path d="M57.1778 62L35.4778 40.3C33.7556 41.6778 31.775 42.7685 29.5361 43.5722C27.2972 44.3759 24.9148 44.7778 22.3889 44.7778C16.1315 44.7778 10.8356 42.6106 6.50139 38.2764C2.16713 33.9421 0 28.6463 0 22.3889C0 16.1315 2.16713 10.8356 6.50139 6.50139C10.8356 2.16713 16.1315 0 22.3889 0C28.6463 0 33.9421 2.16713 38.2764 6.50139C42.6106 10.8356 44.7778 16.1315 44.7778 22.3889C44.7778 24.9148 44.3759 27.2972 43.5722 29.5361C42.7685 31.775 41.6778 33.7556 40.3 35.4778L62 57.1778L57.1778 62ZM22.3889 37.8889C26.6944 37.8889 30.3542 36.3819 33.3681 33.3681C36.3819 30.3542 37.8889 26.6944 37.8889 22.3889C37.8889 18.0833 36.3819 14.4236 33.3681 11.4097C30.3542 8.39583 26.6944 6.88889 22.3889 6.88889C18.0833 6.88889 14.4236 8.39583 11.4097 11.4097C8.39583 14.4236 6.88889 18.0833 6.88889 22.3889C6.88889 26.6944 8.39583 30.3542 11.4097 33.3681C14.4236 36.3819 18.0833 37.8889 22.3889 37.8889Z" fill="white"/>
</svg>
