<svg width="29" height="39" viewBox="0 0 29 39" fill="none" xmlns="http://www.w3.org/2000/svg">
<path d="M14.5 28.2262C17.9179 25.6262 20.4985 23.1237 22.242 20.7188C23.9854 18.3137 24.8571 16.055 24.8571 13.9425C24.8571 11.0175 23.8905 8.6125 21.9571 6.7275C20.0238 4.8425 17.5381 3.9 14.5 3.9C11.4619 3.9 8.97619 4.8425 7.04286 6.7275C5.10952 8.6125 4.14286 11.0175 4.14286 13.9425C4.14286 16.055 5.01458 18.3137 6.75804 20.7188C8.50149 23.1237 11.0821 25.6262 14.5 28.2262ZM14.5 33.15C9.63214 29.77 5.99851 26.4875 3.59911 23.3025C1.1997 20.1175 0 16.9975 0 13.9425C0 9.88 1.34643 6.54062 4.03929 3.92437C6.73214 1.30812 10.219 0 14.5 0C18.781 0 22.2679 1.30812 24.9607 3.92437C27.6536 6.54062 29 9.88 29 13.9425C29 16.9975 27.8003 20.1175 25.4009 23.3025C23.0015 26.4875 19.3679 29.77 14.5 33.15ZM14.5 17.55C15.6393 17.55 16.6146 17.1681 17.4259 16.4044C18.2372 15.6406 18.6429 14.7225 18.6429 13.65C18.6429 12.5775 18.2372 11.6594 17.4259 10.8956C16.6146 10.1319 15.6393 9.75 14.5 9.75C13.3607 9.75 12.3854 10.1319 11.5741 10.8956C10.7628 11.6594 10.3571 12.5775 10.3571 13.65C10.3571 14.7225 10.7628 15.6406 11.5741 16.4044C12.3854 17.1681 13.3607 17.55 14.5 17.55ZM0 39V35.1H29V39H0Z" fill="#B1CEF4"/>
</svg>
