<svg width="55" height="60" viewBox="0 0 55 60" fill="none" xmlns="http://www.w3.org/2000/svg">
<path d="M24.4444 52.275V31.725L6.11111 21.3V41.85L24.4444 52.275ZM30.5556 52.275L48.8889 41.85V21.3L30.5556 31.725V52.275ZM24.4444 59.175L3.05556 47.1C2.08796 46.55 1.33681 45.825 0.802083 44.925C0.267361 44.025 0 43.025 0 41.925V18.075C0 16.975 0.267361 15.975 0.802083 15.075C1.33681 14.175 2.08796 13.45 3.05556 12.9L24.4444 0.825C25.412 0.275 26.4306 0 27.5 0C28.5694 0 29.588 0.275 30.5556 0.825L51.9444 12.9C52.912 13.45 53.6632 14.175 54.1979 15.075C54.7326 15.975 55 16.975 55 18.075V41.925C55 43.025 54.7326 44.025 54.1979 44.925C53.6632 45.825 52.912 46.55 51.9444 47.1L30.5556 59.175C29.588 59.725 28.5694 60 27.5 60C26.4306 60 25.412 59.725 24.4444 59.175ZM39.7222 19.575L45.6042 16.275L27.5 6L21.5417 9.375L39.7222 19.575ZM27.5 26.55L33.4583 23.175L15.3542 12.9L9.39583 16.275L27.5 26.55Z" fill="#040C5D"/>
</svg>
