<svg width="64" height="59" viewBox="0 0 64 59" fill="none" xmlns="http://www.w3.org/2000/svg">
<path d="M0 59V19.6667L25.6 0L42.8 13.275C41.4667 13.4389 40.2133 13.753 39.04 14.2174C37.8667 14.6817 36.7467 15.2963 35.68 16.0611L25.6 8.19444L6.4 22.9444V52.4444H19.2V59H0ZM25.6 59V52.7722C25.6 51.625 25.88 50.5461 26.44 49.5354C27 48.5248 27.76 47.719 28.72 47.1181C31.1733 45.6431 33.7467 44.5231 36.44 43.7583C39.1333 42.9935 41.92 42.6111 44.8 42.6111C47.68 42.6111 50.4667 42.9935 53.16 43.7583C55.8533 44.5231 58.4267 45.6431 60.88 47.1181C61.84 47.719 62.6 48.5248 63.16 49.5354C63.72 50.5461 64 51.625 64 52.7722V59H25.6ZM32.48 52.4444H57.12C55.2533 51.3518 53.28 50.5324 51.2 49.9861C49.12 49.4398 46.9867 49.1667 44.8 49.1667C42.6133 49.1667 40.48 49.4398 38.4 49.9861C36.32 50.5324 34.3467 51.3518 32.48 52.4444ZM44.8 39.3333C42.1333 39.3333 39.8667 38.3773 38 36.4653C36.1333 34.5532 35.2 32.2315 35.2 29.5C35.2 26.7685 36.1333 24.4468 38 22.5347C39.8667 20.6227 42.1333 19.6667 44.8 19.6667C47.4667 19.6667 49.7333 20.6227 51.6 22.5347C53.4667 24.4468 54.4 26.7685 54.4 29.5C54.4 32.2315 53.4667 34.5532 51.6 36.4653C49.7333 38.3773 47.4667 39.3333 44.8 39.3333ZM44.8 32.7778C45.7067 32.7778 46.4667 32.4637 47.08 31.8354C47.6933 31.2072 48 30.4287 48 29.5C48 28.5713 47.6933 27.7928 47.08 27.1646C46.4667 26.5363 45.7067 26.2222 44.8 26.2222C43.8933 26.2222 43.1333 26.5363 42.52 27.1646C41.9067 27.7928 41.6 28.5713 41.6 29.5C41.6 30.4287 41.9067 31.2072 42.52 31.8354C43.1333 32.4637 43.8933 32.7778 44.8 32.7778Z" fill="#040C5D"/>
</svg>
