<svg width="74" height="60" viewBox="0 0 74 60" fill="none" xmlns="http://www.w3.org/2000/svg">
<path d="M16.8182 60C14.0152 60 11.6326 58.9062 9.67045 56.7188C7.70833 54.5312 6.72727 51.875 6.72727 48.75H0V7.5C0 5.4375 0.658712 3.67187 1.97614 2.20312C3.29356 0.734375 4.87727 0 6.72727 0H53.8182V15H63.9091L74 30V48.75H67.2727C67.2727 51.875 66.2917 54.5312 64.3295 56.7188C62.3674 58.9062 59.9848 60 57.1818 60C54.3788 60 51.9962 58.9062 50.0341 56.7188C48.072 54.5312 47.0909 51.875 47.0909 48.75H26.9091C26.9091 51.875 25.928 54.5312 23.9659 56.7188C22.0038 58.9062 19.6212 60 16.8182 60ZM16.8182 52.5C17.7712 52.5 18.5701 52.1406 19.2148 51.4219C19.8595 50.7031 20.1818 49.8125 20.1818 48.75C20.1818 47.6875 19.8595 46.7969 19.2148 46.0781C18.5701 45.3594 17.7712 45 16.8182 45C15.8652 45 15.0663 45.3594 14.4216 46.0781C13.7769 46.7969 13.4545 47.6875 13.4545 48.75C13.4545 49.8125 13.7769 50.7031 14.4216 51.4219C15.0663 52.1406 15.8652 52.5 16.8182 52.5ZM6.72727 41.25H9.41818C10.3712 40.125 11.4644 39.2188 12.6977 38.5312C13.9311 37.8438 15.3045 37.5 16.8182 37.5C18.3318 37.5 19.7053 37.8438 20.9386 38.5312C22.172 39.2188 23.2652 40.125 24.2182 41.25H47.0909V7.5H6.72727V41.25ZM57.1818 52.5C58.1348 52.5 58.9337 52.1406 59.5784 51.4219C60.2231 50.7031 60.5455 49.8125 60.5455 48.75C60.5455 47.6875 60.2231 46.7969 59.5784 46.0781C58.9337 45.3594 58.1348 45 57.1818 45C56.2288 45 55.4299 45.3594 54.7852 46.0781C54.1405 46.7969 53.8182 47.6875 53.8182 48.75C53.8182 49.8125 54.1405 50.7031 54.7852 51.4219C55.4299 52.1406 56.2288 52.5 57.1818 52.5ZM53.8182 33.75H68.1136L60.5455 22.5H53.8182V33.75Z" fill="#040C5D"/>
</svg>
