<svg width="60" height="60" viewBox="0 0 60 60" fill="none" xmlns="http://www.w3.org/2000/svg">
<path d="M18.0166 60C16.3651 60 14.9513 59.4125 13.7752 58.2375C12.5991 57.0625 12.0111 55.65 12.0111 54C12.0111 52.35 12.5991 50.9375 13.7752 49.7625C14.9513 48.5875 16.3651 48 18.0166 48C19.6682 48 21.082 48.5875 22.2581 49.7625C23.4342 50.9375 24.0222 52.35 24.0222 54C24.0222 55.65 23.4342 57.0625 22.2581 58.2375C21.082 59.4125 19.6682 60 18.0166 60ZM48.0444 60C46.3929 60 44.9791 59.4125 43.803 58.2375C42.6269 57.0625 42.0388 55.65 42.0388 54C42.0388 52.35 42.6269 50.9375 43.803 49.7625C44.9791 48.5875 46.3929 48 48.0444 48C49.6959 48 51.1097 48.5875 52.2858 49.7625C53.4619 50.9375 54.0499 52.35 54.0499 54C54.0499 55.65 53.4619 57.0625 52.2858 58.2375C51.1097 59.4125 49.6959 60 48.0444 60ZM15.4643 12L22.6709 27H43.6904L51.948 12H15.4643ZM12.6117 6H56.9026C58.0536 6 58.9294 6.5125 59.53 7.5375C60.1306 8.5625 60.1556 9.6 59.6051 10.65L48.9452 29.85C48.3947 30.85 47.6565 31.625 46.7307 32.175C45.8048 32.725 44.7914 33 43.6904 33H21.3197L18.0166 39H54.0499V45H18.0166C15.7646 45 14.063 44.0125 12.9119 42.0375C11.7609 40.0625 11.7108 38.1 12.7618 36.15L16.8155 28.8L6.00555 6H0V0H9.75902L12.6117 6Z" fill="#040C5D"/>
</svg>
