<svg width="40" height="37" viewBox="0 0 40 37" fill="none" xmlns="http://www.w3.org/2000/svg">
<path fill-rule="evenodd" clip-rule="evenodd" d="M27.5762 20.0418C28.8262 20.0418 29.9262 19.4097 30.4928 18.4539L36.4595 8.4485C37.0762 7.431 36.2762 6.16683 35.0095 6.16683H10.3428L8.77617 3.0835H3.32617V6.16683H6.65951L12.6595 17.8681L10.4095 21.6297C9.19284 23.6956 10.7928 26.2085 13.3262 26.2085H33.3262V23.1252H13.3262L15.1595 20.0418H27.5762ZM10.0095 30.8335C10.0095 29.1377 11.4928 27.7502 13.3262 27.7502C15.1595 27.7502 16.6595 29.1377 16.6595 30.8335C16.6595 32.5293 15.1595 33.9168 13.3262 33.9168C11.4928 33.9168 10.0095 32.5293 10.0095 30.8335ZM26.6762 30.8335C26.6762 29.1377 28.1595 27.7502 29.9928 27.7502C31.8262 27.7502 33.3262 29.1377 33.3262 30.8335C33.3262 32.5293 31.8262 33.9168 29.9928 33.9168C28.1595 33.9168 26.6762 32.5293 26.6762 30.8335ZM32.1762 9.25016H11.9262L15.8762 16.9585H27.5762L32.1762 9.25016Z" fill="white"/>
</svg>
