<svg width="37" height="37" viewBox="0 0 37 37" fill="none" xmlns="http://www.w3.org/2000/svg">
<path d="M24.605 27.195L27.195 24.605L20.35 17.76V9.25H16.65V19.24L24.605 27.195ZM18.5 37C15.9408 37 13.5358 36.5144 11.285 35.5431C9.03417 34.5719 7.07625 33.2538 5.41125 31.5888C3.74625 29.9238 2.42812 27.9658 1.45687 25.715C0.485625 23.4642 0 21.0592 0 18.5C0 15.9408 0.485625 13.5358 1.45687 11.285C2.42812 9.03417 3.74625 7.07625 5.41125 5.41125C7.07625 3.74625 9.03417 2.42812 11.285 1.45687C13.5358 0.485625 15.9408 0 18.5 0C21.0592 0 23.4642 0.485625 25.715 1.45687C27.9658 2.42812 29.9238 3.74625 31.5888 5.41125C33.2538 7.07625 34.5719 9.03417 35.5431 11.285C36.5144 13.5358 37 15.9408 37 18.5C37 21.0592 36.5144 23.4642 35.5431 25.715C34.5719 27.9658 33.2538 29.9238 31.5888 31.5888C29.9238 33.2538 27.9658 34.5719 25.715 35.5431C23.4642 36.5144 21.0592 37 18.5 37ZM18.5 33.3C22.6008 33.3 26.0927 31.8585 28.9756 28.9756C31.8585 26.0927 33.3 22.6008 33.3 18.5C33.3 14.3992 31.8585 10.9073 28.9756 8.02437C26.0927 5.14146 22.6008 3.7 18.5 3.7C14.3992 3.7 10.9073 5.14146 8.02437 8.02437C5.14146 10.9073 3.7 14.3992 3.7 18.5C3.7 22.6008 5.14146 26.0927 8.02437 28.9756C10.9073 31.8585 14.3992 33.3 18.5 33.3Z" fill="#B1CEF4"/>
</svg>
