<svg width="20" height="21" viewBox="0 0 20 21" fill="none" xmlns="http://www.w3.org/2000/svg">
<path d="M1.75 5.25H3.58333M3.58333 5.25H18.25M3.58333 5.25V17.5C3.58333 17.9641 3.77649 18.4092 4.1203 18.7374C4.46412 19.0656 4.93044 19.25 5.41667 19.25H14.5833C15.0696 19.25 15.5359 19.0656 15.8797 18.7374C16.2235 18.4092 16.4167 17.9641 16.4167 17.5V5.25M6.33333 5.25V3.5C6.33333 3.03587 6.52649 2.59075 6.8703 2.26256C7.21412 1.93437 7.68044 1.75 8.16667 1.75H11.8333C12.3196 1.75 12.7859 1.93437 13.1297 2.26256C13.4735 2.59075 13.6667 3.03587 13.6667 3.5V5.25" stroke="#040C5D" stroke-width="2" stroke-linecap="round" stroke-linejoin="round"/>
</svg>
